.
 
http://www.scenetime.com    -   SceneTime [ We been having it ] !!!


How come you press harder on a remote control when you know the battery is dead? so you better seed to get speed ;)

        Seed back for speed


...................................NFO:.................................................[img]http://img189.imageshack.us/img189/3443/doawk2dvdspine.jpg[/img]

[color=blue][size=4][b]Diary.Of.A.Wimpy.Kid.Rodrick.Rules.2011.BDRip.XVID.AC3.HQ.Hive-CM8[/b][/size][/color]


[b]Thx Hive


CM8 Doing It Right The First Time :D


Source Bluray

Video: 720x304 @bitrate 1800 2pass
Audio: English DTS to AC3 5.1 @448
Sample: yes included
Subs: yes english in srt /subs[/b]


[url]http://www.imdb.com/title/tt1650043/[/url]


General
Complete name                    : Diary.Of.A.Wimpy.Kid.Rodrick.Rules.2011.BDRip.XVID.AC3.HQ.Hive-CM8.avi
Format                           : AVI
Format/Info                      : Audio Video Interleave
File size                        : 1.57 GiB
Duration                         : 1h 39mn
Overall bit rate                 : 2 257 Kbps
Writing application              : Nandub v1.0rc2
Writing library                  : Nandub build 1853/release

Video
ID                               : 0
Format                           : MPEG-4 Visual
Format profile                   : Advanced Simple@L5
Format settings, BVOP            : 1
Format settings, QPel            : Yes
Format settings, GMC             : No warppoints
Format settings, Matrix          : Default (H.263)
Muxing mode                      : Packed bitstream
Codec ID                         : XVID
Codec ID/Hint                    : XviD
Duration                         : 1h 39mn
Bit rate                         : 1 800 Kbps
Width                            : 720 pixels
Height                           : 304 pixels
Display aspect ratio             : 2.35:1
Frame rate                       : 23.976 fps
Color space                      : YUV
Chroma subsampling               : 4:2:0
Bit depth                        : 8 bits
Scan type                        : Progressive
Compression mode                 : Lossy
Bits/(Pixel*Frame)               : 0.343
Stream size                      : 1.25 GiB (80%)
Writing library                  : XviD 1.2.1 (UTC 2008-12-04)

Audio
ID                               : 1
Format                           : AC-3
Format/Info                      : Audio Coding 3
Mode extension                   : CM (complete main)
Codec ID                         : 2000
Duration                         : 1h 39mn
Bit rate mode                    : Constant
Bit rate                         : 448 Kbps
Channel(s)                       : 6 channels
Channel positions                : Front: L C R, Side: L R, LFE
Sampling rate                    : 48.0 KHz
Bit depth                        : 16 bits
Compression mode                 : Lossy
Stream size                      : 319 MiB (20%)
Alignment                        : Split accross interleaves
Interleave, duration             : 42 ms (1.00 video frame)
Interleave, preload duration     : 500 ms


Zachary Gordon	 ... 	Greg Heffley
Devon Bostick	... 	Rodrick Heffley
Rachael Harris	... 	Susan Heffley
Robert Capron	... 	Rowley Jefferson
Steve Zahn	... 	Frank Heffley


Back in middle school after summer vacation, Greg Heffley and his 
older brother Rodrick must deal with their parents' misguided attempts to have them bond. 



[img]http://img32.imageshack.us/img32/2377/68535947.png[/img]
[img]http://img137.imageshack.us/img137/9144/didi.png[/img]
[img]http://img11.imageshack.us/img11/1650/dididi.png[/img]
[img]http://img685.imageshack.us/img685/1988/didididdiiddiidididi.png[/img]
[img]http://img64.imageshack.us/img64/5043/didididdiididididi.png[/img]
[img]http://img684.imageshack.us/img684/8176/didididi.png[/img]
[img]http://img848.imageshack.us/img848/402/dididididi.png[/img]
[img]http://img543.imageshack.us/img543/7650/didididididi.png[/img]
[img]http://img7.imageshack.us/img7/3503/dididididididi.png[/img]
[img]http://img32.imageshack.us/img32/4853/didididididididi.png[/img]

cover+label:

[img]http://img854.imageshack.us/img854/1518/diaryofawimpykidrodrickv.jpg[/img]

[img]http://img708.imageshack.us/img708/2050/diaryofawimpykidrodrickb.jpg[/img]



Greetz

ViSiON,SANTi,MAGNET,THC,T0XiC,iNK,LKRG,IMAGiNE,WBZ,FLAWL3SS,NOVA
Vik,OneTwo,Rapeseed,D2U,SAFC,goldadvance,MEMORY100,KaN1vE,Unevano,Pinnz,Wayne,Mr Hive
and all P2P groups 
Great Work Guys :D

FYS

CM8@hushmail.com